<?xml version="1.0" encoding="utf-8"?>
<svg width="200px" height="100px" viewBox="433.548 532.082 867.098 586.277" xmlns="http://www.w3.org/2000/svg">
  <defs/>
  <path fill-rule="nonzero" fill="rgb(19.213867%, 18.041992%, 26.268005%)" fill-opacity="1" d="M 479.878906 967.082031 L 527.398438 967.082031 L 527.398438 959.75 L 487.808594 959.75 L 487.808594 896.738281 L 479.878906 896.738281 Z M 613.199219 931.8125 C 613.199219 926.917969 612.355469 922.277344 610.636719 917.898438 C 608.9375 913.507812 606.496094 909.65625 603.355469 906.335938 C 600.210938 903.015625 596.4375 900.390625 592.054688 898.449219 C 587.667969 896.503906 582.789062 895.539062 577.4375 895.539062 C 572.078125 895.539062 567.179688 896.523438 562.761719 898.503906 C 558.335938 900.484375 554.554688 903.144531 551.402344 906.484375 C 548.261719 909.839844 545.8125 913.707031 544.066406 918.097656 C 542.324219 922.480469 541.464844 927.121094 541.464844 932.011719 C 541.464844 936.898438 542.316406 941.535156 544.023438 945.921875 C 545.734375 950.316406 548.160156 954.164062 551.308594 957.480469 C 554.453125 960.792969 558.226562 963.433594 562.613281 965.363281 C 567 967.316406 571.871094 968.28125 577.234375 968.28125 C 582.589844 968.28125 587.480469 967.296875 591.902344 965.316406 C 596.324219 963.34375 600.109375 960.679688 603.253906 957.332031 C 606.402344 953.976562 608.847656 950.109375 610.589844 945.726562 C 612.328125 941.335938 613.199219 936.703125 613.199219 931.8125 Z M 604.964844 932.011719 C 604.964844 936.027344 604.277344 939.800781 602.902344 943.316406 C 601.53125 946.832031 599.640625 949.894531 597.226562 952.507812 C 594.816406 955.121094 591.921875 957.183594 588.535156 958.6875 C 585.144531 960.195312 581.449219 960.945312 577.4375 960.945312 C 573.414062 960.945312 569.710938 960.183594 566.332031 958.636719 C 562.945312 957.09375 560.007812 955.027344 557.535156 952.402344 C 555.054688 949.789062 553.132812 946.710938 551.757812 943.160156 C 550.382812 939.613281 549.703125 935.824219 549.703125 931.8125 C 549.703125 927.789062 550.382812 924.027344 551.757812 920.507812 C 553.132812 916.980469 555.023438 913.921875 557.433594 911.3125 C 559.835938 908.695312 562.746094 906.636719 566.128906 905.132812 C 569.503906 903.621094 573.210938 902.871094 577.234375 902.871094 C 581.246094 902.871094 584.953125 903.640625 588.339844 905.183594 C 591.722656 906.71875 594.652344 908.800781 597.125 911.40625 C 599.605469 914.019531 601.53125 917.105469 602.902344 920.660156 C 604.277344 924.203125 604.964844 927.992188 604.964844 932.011719 Z M 694.679688 967.082031 L 673.078125 938.355469 C 675.824219 937.886719 678.371094 937.082031 680.714844 935.953125 C 683.058594 934.808594 685.085938 933.382812 686.796875 931.679688 C 688.503906 929.960938 689.824219 927.957031 690.761719 925.652344 C 691.703125 923.332031 692.167969 920.707031 692.167969 917.757812 C 692.167969 914.613281 691.570312 911.730469 690.355469 909.152344 C 689.15625 906.574219 687.449219 904.359375 685.238281 902.519531 C 683.023438 900.683594 680.363281 899.253906 677.253906 898.253906 C 674.132812 897.242188 670.640625 896.738281 666.742188 896.738281 L 636.5 896.738281 L 636.5 967.082031 L 644.445312 967.082031 L 644.445312 939.742188 L 664.539062 939.742188 L 684.9375 967.082031 Z M 684.234375 918.097656 C 684.234375 920.367188 683.785156 922.429688 682.871094 924.242188 C 681.96875 926.0625 680.714844 927.582031 679.09375 928.824219 C 677.484375 930.066406 675.574219 931.03125 673.347656 931.710938 C 671.136719 932.378906 668.722656 932.714844 666.101562 932.714844 L 644.445312 932.714844 L 644.445312 904.078125 L 666.195312 904.078125 C 671.910156 904.078125 676.34375 905.300781 679.492188 907.765625 C 682.65625 910.210938 684.234375 913.65625 684.234375 918.097656 Z M 766.515625 896.738281 L 715.671875 896.738281 L 715.671875 967.082031 L 767.019531 967.082031 L 767.019531 959.84375 L 723.609375 959.84375 L 723.609375 935.230469 L 761.996094 935.230469 L 761.996094 927.992188 L 723.609375 927.992188 L 723.609375 903.976562 L 766.515625 903.976562 Z M 848.902344 910.105469 L 848.902344 967.082031 L 856.835938 967.082031 L 856.835938 896.738281 L 848.796875 896.738281 L 823.175781 935.121094 L 797.550781 896.738281 L 789.519531 896.738281 L 789.519531 967.082031 L 797.253906 967.082031 L 797.253906 910.210938 L 822.875 947.785156 L 823.273438 947.785156 Z M 897.925781 967.082031 L 897.925781 896.738281 L 882.453125 896.738281 L 882.453125 967.082031 Z M 977.699219 921.257812 L 977.699219 921.054688 C 977.699219 906.683594 967.546875 896.738281 950.773438 896.738281 L 922.035156 896.738281 L 922.035156 967.082031 L 937.503906 967.082031 L 937.503906 945.976562 L 949.261719 945.976562 C 965.035156 945.976562 977.699219 937.535156 977.699219 921.257812 Z M 962.023438 921.566406 C 962.023438 927.582031 957.5 932.210938 949.761719 932.210938 L 937.503906 932.210938 L 937.503906 910.710938 L 949.460938 910.710938 C 957.199219 910.710938 962.023438 914.425781 962.023438 921.363281 Z M 1046.511719 946.277344 L 1046.511719 946.078125 C 1046.511719 933.820312 1038.480469 928.691406 1024.210938 924.980469 C 1012.050781 921.859375 1009.039062 920.351562 1009.039062 915.734375 L 1009.039062 915.53125 C 1009.039062 912.109375 1012.148438 909.402344 1018.089844 909.402344 C 1024.011719 909.402344 1030.140625 912.015625 1036.371094 916.328125 L 1044.410156 904.675781 C 1037.269531 898.953125 1028.53125 895.734375 1018.289062 895.734375 C 1003.910156 895.734375 993.664062 904.171875 993.664062 916.9375 L 993.664062 917.144531 C 993.664062 931.105469 1002.808594 935.023438 1016.96875 938.648438 C 1028.730469 941.652344 1031.140625 943.664062 1031.140625 947.585938 L 1031.140625 947.785156 C 1031.140625 951.90625 1027.328125 954.414062 1021 954.414062 C 1012.960938 954.414062 1006.328125 951.101562 999.992188 945.878906 L 990.855469 956.835938 C 999.292969 964.363281 1010.039062 968.085938 1020.699219 968.085938 C 1035.871094 968.085938 1046.511719 960.246094 1046.511719 946.277344 Z M 1126.691406 936.425781 L 1126.691406 896.738281 L 1111.21875 896.738281 L 1111.21875 937.035156 C 1111.21875 948.191406 1105.488281 953.914062 1096.050781 953.914062 C 1086.601562 953.914062 1080.871094 947.984375 1080.871094 936.535156 L 1080.871094 896.738281 L 1065.398438 896.738281 L 1065.398438 936.933594 C 1065.398438 957.628906 1076.949219 968.183594 1095.839844 968.183594 C 1114.730469 968.183594 1126.691406 957.734375 1126.691406 936.425781 Z M 1219.320312 967.082031 L 1219.320312 896.738281 L 1202.648438 896.738281 L 1184.148438 926.480469 L 1165.671875 896.738281 L 1148.988281 896.738281 L 1148.988281 967.082031 L 1164.160156 967.082031 L 1164.160156 921.460938 L 1183.75 951.203125 L 1184.148438 951.203125 L 1203.949219 921.164062 L 1203.949219 967.082031 L 1219.320312 967.082031 "/>
  <path fill-rule="nonzero" fill="rgb(19.213867%, 18.041992%, 26.268005%)" fill-opacity="1" d="M 661.242188 1003.550781 L 652.773438 1003.550781 L 644.558594 1017.136719 L 636.480469 1003.550781 L 627.777344 1003.550781 L 640.785156 1024.054688 L 640.785156 1037.394531 L 648.234375 1037.394531 L 648.234375 1023.90625 Z M 705.804688 1020.472656 L 705.804688 1020.371094 C 705.804688 1010.75 698.300781 1002.96875 687.859375 1002.96875 C 677.414062 1002.96875 669.828125 1010.855469 669.828125 1020.472656 L 669.828125 1020.566406 C 669.828125 1030.183594 677.324219 1037.976562 687.761719 1037.976562 C 698.210938 1037.976562 705.804688 1030.089844 705.804688 1020.472656 Z M 698.019531 1020.566406 C 698.019531 1026.371094 693.855469 1031.109375 687.859375 1031.109375 C 681.863281 1031.109375 677.613281 1026.273438 677.613281 1020.472656 L 677.613281 1020.371094 C 677.613281 1014.574219 681.765625 1009.835938 687.761719 1009.835938 C 693.757812 1009.835938 698.019531 1014.671875 698.019531 1020.472656 Z M 749.734375 1022.648438 L 749.734375 1003.550781 L 742.285156 1003.550781 L 742.285156 1022.9375 C 742.285156 1028.308594 739.53125 1031.0625 734.984375 1031.0625 C 730.441406 1031.0625 727.679688 1028.214844 727.679688 1022.691406 L 727.679688 1003.550781 L 720.234375 1003.550781 L 720.234375 1022.894531 C 720.234375 1032.855469 725.796875 1037.929688 734.886719 1037.929688 C 743.972656 1037.929688 749.734375 1032.902344 749.734375 1022.648438 Z M 794.917969 1037.394531 L 786.652344 1025.3125 C 790.949219 1023.710938 793.910156 1020.277344 793.910156 1014.816406 L 793.910156 1014.722656 C 793.910156 1007.753906 789.117188 1003.550781 781.140625 1003.550781 L 765.664062 1003.550781 L 765.664062 1037.394531 L 773.109375 1037.394531 L 773.109375 1026.570312 L 778.960938 1026.570312 L 786.214844 1037.394531 Z M 786.359375 1015.203125 C 786.359375 1018.054688 784.277344 1019.984375 780.652344 1019.984375 L 773.109375 1019.984375 L 773.109375 1010.265625 L 780.507812 1010.265625 C 784.140625 1010.265625 786.359375 1011.917969 786.359375 1015.105469 Z M 847.941406 1027.386719 L 847.941406 1027.289062 C 847.941406 1021.394531 844.070312 1018.929688 837.199219 1017.136719 C 831.347656 1015.636719 829.902344 1014.910156 829.902344 1012.6875 L 829.902344 1012.589844 C 829.902344 1010.941406 831.402344 1009.640625 834.253906 1009.640625 C 837.109375 1009.640625 840.0625 1010.898438 843.058594 1012.976562 L 846.925781 1007.367188 C 843.496094 1004.613281 839.285156 1003.0625 834.355469 1003.0625 C 827.4375 1003.0625 822.507812 1007.125 822.507812 1013.265625 L 822.507812 1013.367188 C 822.507812 1020.085938 826.898438 1021.980469 833.722656 1023.710938 C 839.382812 1025.160156 840.546875 1026.128906 840.546875 1028.023438 L 840.546875 1028.109375 C 840.546875 1030.089844 838.707031 1031.308594 835.660156 1031.308594 C 831.796875 1031.308594 828.605469 1029.707031 825.554688 1027.1875 L 821.152344 1032.46875 C 825.210938 1036.089844 830.390625 1037.882812 835.515625 1037.882812 C 842.816406 1037.882812 847.941406 1034.109375 847.941406 1027.386719 Z M 887.089844 1037.394531 L 887.089844 1030.628906 L 870.210938 1030.628906 L 870.210938 1003.550781 L 862.769531 1003.550781 L 862.769531 1037.394531 Z M 933.578125 1020.472656 L 933.578125 1020.371094 C 933.578125 1010.75 926.085938 1002.96875 915.640625 1002.96875 C 905.199219 1002.96875 897.601562 1010.855469 897.601562 1020.472656 L 897.601562 1020.566406 C 897.601562 1030.183594 905.09375 1037.976562 915.535156 1037.976562 C 925.988281 1037.976562 933.578125 1030.089844 933.578125 1020.472656 Z M 925.796875 1020.566406 C 925.796875 1026.371094 921.636719 1031.109375 915.640625 1031.109375 C 909.640625 1031.109375 905.386719 1026.273438 905.386719 1020.472656 L 905.386719 1020.371094 C 905.386719 1014.574219 909.550781 1009.835938 915.535156 1009.835938 C 921.542969 1009.835938 925.796875 1014.671875 925.796875 1020.472656 Z M 979.300781 1032.609375 L 979.300781 1017.910156 L 964.597656 1017.910156 L 964.597656 1024.34375 L 972.097656 1024.34375 L 972.097656 1029.171875 C 970.207031 1030.535156 967.792969 1031.203125 965.085938 1031.203125 C 959.085938 1031.203125 954.828125 1026.660156 954.828125 1020.472656 L 954.828125 1020.371094 C 954.828125 1014.621094 959.140625 1009.835938 964.554688 1009.835938 C 968.464844 1009.835938 970.789062 1011.09375 973.398438 1013.265625 L 978.089844 1007.609375 C 974.558594 1004.613281 970.894531 1002.96875 964.792969 1002.96875 C 954.550781 1002.96875 947.046875 1010.855469 947.046875 1020.472656 L 947.046875 1020.566406 C 947.046875 1030.578125 954.300781 1037.976562 964.835938 1037.976562 C 971.027344 1037.976562 975.816406 1035.558594 979.300781 1032.609375 Z M 1027.78125 1037.394531 L 1013.269531 1003.304688 L 1006.398438 1003.304688 L 991.894531 1037.394531 L 999.488281 1037.394531 L 1002.578125 1029.800781 L 1016.898438 1029.800781 L 1019.988281 1037.394531 Z M 1014.230469 1023.222656 L 1005.238281 1023.222656 L 1009.738281 1012.253906 Z M 1071.421875 1037.394531 L 1071.421875 1003.550781 L 1064.070312 1003.550781 L 1064.070312 1024.394531 L 1048.210938 1003.550781 L 1041.351562 1003.550781 L 1041.351562 1037.394531 L 1048.691406 1037.394531 L 1048.691406 1015.878906 L 1065.078125 1037.394531 L 1071.421875 1037.394531 "/>
  <path fill-rule="evenodd" fill="rgb(74.414062%, 63.084412%, 31.37207%)" fill-opacity="1" d="M 980.355469 735.132812 L 980.355469 735.140625 L 980.304688 735.835938 C 980.273438 736.222656 980.242188 736.609375 980.210938 736.996094 L 980.152344 737.660156 C 980.117188 738.058594 980.078125 738.453125 980.039062 738.851562 L 979.972656 739.53125 C 979.929688 739.925781 979.886719 740.320312 979.839844 740.714844 L 979.769531 741.335938 C 979.71875 741.757812 979.664062 742.179688 979.613281 742.601562 C 979.585938 742.808594 979.558594 743.019531 979.527344 743.226562 C 979.558594 743.019531 979.585938 742.808594 979.613281 742.601562 C 979.585938 742.808594 979.558594 743.019531 979.527344 743.226562 C 979.472656 743.652344 979.414062 744.078125 979.351562 744.503906 L 979.269531 745.050781 C 979.207031 745.476562 979.140625 745.90625 979.074219 746.332031 L 978.984375 746.894531 C 978.914062 747.324219 978.839844 747.753906 978.765625 748.183594 L 978.671875 748.710938 C 978.59375 749.148438 978.515625 749.585938 978.433594 750.023438 L 978.335938 750.527344 C 978.246094 750.980469 978.15625 751.433594 978.066406 751.886719 L 977.96875 752.351562 C 977.875 752.8125 977.777344 753.273438 977.675781 753.730469 L 977.582031 754.15625 C 977.476562 754.617188 977.371094 755.074219 977.265625 755.53125 L 977.152344 756.015625 C 977.042969 756.464844 976.933594 756.917969 976.820312 757.367188 L 976.707031 757.820312 C 976.589844 758.28125 976.472656 758.738281 976.347656 759.199219 L 976.238281 759.605469 C 976.113281 760.074219 975.984375 760.546875 975.851562 761.019531 L 975.746094 761.386719 C 975.609375 761.863281 975.472656 762.339844 975.332031 762.8125 L 975.230469 763.15625 L 752.554688 763.15625 C 754.945312 769.34375 757.914062 775.246094 761.390625 780.792969 L 968.304688 780.792969 C 963.609375 790.898438 957.664062 800.308594 950.667969 808.816406 C 926.652344 838.023438 890.242188 856.648438 849.480469 856.648438 C 817.066406 856.648438 787.40625 844.871094 764.539062 825.363281 L 820.050781 825.363281 C 829.382812 828.117188 839.257812 829.59375 849.480469 829.59375 C 872.871094 829.59375 894.453125 821.863281 911.816406 808.816406 L 748.289062 808.816406 C 741.296875 800.308594 735.351562 790.898438 730.65625 780.792969 C 728.023438 775.121094 725.785156 769.234375 723.976562 763.15625 C 721.300781 754.183594 719.566406 744.804688 718.878906 735.132812 L 980.355469 735.132812 L 980.355469 735.140625 Z M 975.746094 761.386719 L 975.851562 761.019531 Z M 976.238281 759.605469 L 976.347656 759.199219 Z M 976.707031 757.820312 L 976.820312 757.367188 Z M 977.152344 756.015625 L 977.265625 755.53125 Z M 977.582031 754.15625 L 977.675781 753.730469 Z M 977.96875 752.351562 L 978.066406 751.886719 Z M 978.335938 750.527344 L 978.433594 750.023438 Z M 978.671875 748.710938 L 978.765625 748.183594 Z M 978.984375 746.894531 L 979.074219 746.332031 Z M 979.269531 745.050781 L 979.351562 744.503906 Z M 979.769531 741.335938 L 979.839844 740.714844 Z M 979.972656 739.53125 L 980.039062 738.851562 Z M 980.152344 737.660156 L 980.210938 736.996094 Z M 723.835938 688.75 C 721.195312 697.730469 719.496094 707.105469 718.84375 716.773438 L 980.113281 716.773438 C 979.464844 707.105469 977.765625 697.730469 975.128906 688.75 C 973.292969 682.503906 971.003906 676.449219 968.300781 670.628906 C 963.609375 660.519531 957.664062 651.121094 950.667969 642.609375 L 787.144531 642.609375 C 804.507812 629.558594 826.089844 621.828125 849.480469 621.828125 C 863.644531 621.828125 877.152344 624.671875 889.457031 629.808594 L 938.621094 629.808594 C 915.246094 608.070312 883.914062 594.78125 849.480469 594.78125 C 808.71875 594.78125 772.308594 613.398438 748.292969 642.609375 C 741.296875 651.121094 735.351562 660.519531 730.660156 670.628906 L 937.570312 670.628906 C 941.136719 676.320312 944.167969 682.386719 946.589844 688.75 L 723.835938 688.75 "/>
</svg>